<svg xmlns="http://www.w3.org/2000/svg" version="1.1" xmlns:xlink="http://www.w3.org/1999/xlink" xmlns:svgjs="http://svgjs.dev/svgjs" width="350" height="350"><svg width="350" height="350" viewBox="0 0 350 350" fill="none" xmlns="http://www.w3.org/2000/svg">
<rect width="350" height="350" rx="175" fill="#212121"></rect>
<path d="M163.51 137.376V139.936C160.609 140.021 158.39 140.448 156.854 141.216C155.403 141.984 154.422 143.221 153.91 144.928C153.398 146.635 153.142 149.067 153.142 152.224V228.64C152.63 228.64 152.118 228.64 151.606 228.64C151.179 228.64 150.71 228.64 150.198 228.64L96.438 145.568V213.152C96.438 216.224 96.694 218.656 97.206 220.448C97.8033 222.155 98.9127 223.392 100.534 224.16C102.241 224.843 104.758 225.269 108.086 225.44V228C106.55 227.829 104.545 227.744 102.07 227.744C99.5953 227.659 97.2487 227.616 95.03 227.616C92.8967 227.616 90.7207 227.659 88.502 227.744C86.3687 227.744 84.5767 227.829 83.126 228V225.44C86.0273 225.269 88.2033 224.843 89.654 224.16C91.19 223.392 92.214 222.155 92.726 220.448C93.238 218.656 93.494 216.224 93.494 213.152V150.944C93.494 147.787 93.238 145.483 92.726 144.032C92.214 142.496 91.19 141.472 89.654 140.96C88.2033 140.363 86.0273 140.021 83.126 139.936V137.376C84.5767 137.461 86.3687 137.547 88.502 137.632C90.7207 137.717 92.8967 137.76 95.03 137.76C96.9073 137.76 98.6993 137.717 100.406 137.632C102.113 137.547 103.649 137.461 105.014 137.376L150.198 207.008V152.224C150.198 149.067 149.899 146.635 149.302 144.928C148.79 143.221 147.681 141.984 145.974 141.216C144.353 140.448 141.878 140.021 138.55 139.936V137.376C140.086 137.461 142.091 137.547 144.566 137.632C147.126 137.717 149.473 137.76 151.606 137.76C153.825 137.76 156.001 137.717 158.134 137.632C160.353 137.547 162.145 137.461 163.51 137.376ZM182.503 213.408C184.722 213.408 186.642 214.219 188.263 215.84C189.884 217.461 190.695 219.381 190.695 221.6C190.695 223.819 189.884 225.739 188.263 227.36C186.642 228.981 184.722 229.792 182.503 229.792C180.284 229.792 178.364 228.981 176.743 227.36C175.122 225.739 174.311 223.819 174.311 221.6C174.311 219.381 175.122 217.461 176.743 215.84C178.364 214.219 180.284 213.408 182.503 213.408ZM231.393 135.968C235.66 135.968 238.902 136.48 241.121 137.504C243.34 138.443 245.302 139.509 247.009 140.704C248.033 141.301 248.844 141.771 249.441 142.112C250.124 142.368 250.764 142.496 251.361 142.496C252.214 142.496 252.812 142.027 253.153 141.088C253.58 140.149 253.921 138.741 254.177 136.864H257.121C257.036 138.315 256.908 140.064 256.737 142.112C256.652 144.075 256.566 146.72 256.481 150.048C256.481 153.291 256.481 157.6 256.481 162.976H253.537C253.281 158.88 252.385 154.955 250.849 151.2C249.313 147.445 247.052 144.373 244.065 141.984C241.164 139.595 237.324 138.4 232.545 138.4C228.022 138.4 224.268 139.765 221.281 142.496C218.38 145.227 216.929 148.811 216.929 153.248C216.929 157.088 217.91 160.331 219.873 162.976C221.836 165.536 224.438 167.883 227.681 170.016C231.009 172.064 234.593 174.283 238.433 176.672C242.87 179.403 246.796 182.133 250.209 184.864C253.708 187.509 256.438 190.453 258.401 193.696C260.449 196.939 261.473 200.864 261.473 205.472C261.473 210.933 260.236 215.456 257.761 219.04C255.286 222.624 252.001 225.312 247.905 227.104C243.809 228.896 239.286 229.792 234.337 229.792C229.814 229.792 226.23 229.28 223.585 228.256C220.94 227.232 218.678 226.165 216.801 225.056C214.924 223.861 213.473 223.264 212.449 223.264C211.596 223.264 210.956 223.733 210.529 224.672C210.188 225.611 209.889 227.019 209.633 228.896H206.689C206.86 227.104 206.945 225.013 206.945 222.624C207.03 220.149 207.073 216.949 207.073 213.024C207.158 209.099 207.201 204.149 207.201 198.176H210.145C210.486 203.296 211.425 208.075 212.961 212.512C214.582 216.949 217.014 220.533 220.257 223.264C223.585 225.909 227.98 227.232 233.441 227.232C236.257 227.232 238.902 226.677 241.377 225.568C243.937 224.373 246.028 222.539 247.649 220.064C249.27 217.504 250.081 214.219 250.081 210.208C250.081 206.709 249.228 203.68 247.521 201.12C245.9 198.475 243.596 196.043 240.609 193.824C237.622 191.52 234.124 189.173 230.113 186.784C226.102 184.309 222.348 181.792 218.849 179.232C215.35 176.672 212.534 173.728 210.401 170.4C208.353 166.987 207.329 162.891 207.329 158.112C207.329 153.077 208.438 148.939 210.657 145.696C212.961 142.368 215.948 139.936 219.617 138.4C223.286 136.779 227.212 135.968 231.393 135.968ZM283.878 213.408C286.097 213.408 288.017 214.219 289.638 215.84C291.259 217.461 292.07 219.381 292.07 221.6C292.07 223.819 291.259 225.739 289.638 227.36C288.017 228.981 286.097 229.792 283.878 229.792C281.659 229.792 279.739 228.981 278.118 227.36C276.497 225.739 275.686 223.819 275.686 221.6C275.686 219.381 276.497 217.461 278.118 215.84C279.739 214.219 281.659 213.408 283.878 213.408Z" fill="white"></path>
</svg><style>@media (prefers-color-scheme: light) { :root { filter: none; } }
@media (prefers-color-scheme: dark) { :root { filter: none; } }
</style></svg>